PathFileType	4	(X/Y/Z)	E:\Qualisys_Data\Carbon_Farble_Plate\Data\Amateur_Runner\S1\T1\S1T1V23_c3d.trc
DataRate	CameraRate	NumFrames	NumMarkers	Units	OrigDataRate	OrigDataStartFrame	OrigNumFrames
200.000000	200.000000	4	39	mm	200.000000	34	273
Frame#	Time	LSHO			RSHO			LICST			RICST			LASIS			LHEEL			RASIS			LTROC			RTROC			SACR			LTH1			LSK4			LTH2			LTH3			RHM5			LSK2			LTH4			RTH1			LTOE			RTH2			RTH3			RTH4			LLEP			RLEP			LSK1			LSK3			RSK1			LHM5			RSK2			LFT1			RSK3			RSK4			LLME			RLME			RTOE			RHEEL			RFT1			RFT2			LFT2			
		X1	Y1	Z1	X2	Y2	Z2	X3	Y3	Z3	X4	Y4	Z4	X5	Y5	Z5	X6	Y6	Z6	X7	Y7	Z7	X8	Y8	Z8	X9	Y9	Z9	X10	Y10	Z10	X11	Y11	Z11	X12	Y12	Z12	X13	Y13	Z13	X14	Y14	Z14	X15	Y15	Z15	X16	Y16	Z16	X17	Y17	Z17	X18	Y18	Z18	X19	Y19	Z19	X20	Y20	Z20	X21	Y21	Z21	X22	Y22	Z22	X23	Y23	Z23	X24	Y24	Z24	X25	Y25	Z25	X26	Y26	Z26	X27	Y27	Z27	X28	Y28	Z28	X29	Y29	Z29	X30	Y30	Z30	X31	Y31	Z31	X32	Y32	Z32	X33	Y33	Z33	X34	Y34	Z34	X35	Y35	Z35	X36	Y36	Z36	X37	Y37	Z37	X38	Y38	Z38	X39	Y39	Z39	

35	0.17	-2078.818115234375	1479.367797851562	-500.1629333496094	-2075.341796875	1438.25	-168.2746429443359	-2096.89892578125	987.1747436523438	-483.5330505371094	-2098.7841796875	1030.146484375	-182.4086303710938	-2050.32666015625	958.0810546875	-453.3728942871094	-2267.298583984375	369.1794738769531	-386.8451232910156	-2052.006103515625	985.1580200195312	-186.1260223388672	-2141.255615234375	859.2177124023438	-489.28369140625	-2155.833984375	887.7060546875	-152.447021484375	-2214.975830078125	1015.372253417969	-326.0229187011719	-1949.226806640625	797.4344482421875	-473.6711730957031	-2130.962158203125	450.5251159667969	-420.5443725585938	-2011.937133789062	745.098388671875	-502.4145202636719	-1885.597290039062	715.775146484375	-466.7645568847656	-2136.96826171875	58.58543014526367	-211.2486114501953	-2044.850463867188	495.5433959960938	-458.2022399902344	-1952.020263671875	664.0785522460938	-485.4970092773438	-2011.790161132812	763.1256713867188	-173.1281890869141	-2118.931884765625	160.266845703125	-396.5772094726562	-2088.20751953125	753.2349853515625	-150.227294921875	-2005.728271484375	661.4540405273438	-187.2869262695312	-2083.666259765625	654.963623046875	-170.0572662353516	-1852.406860351562	558.4078369140625	-452.0630187988281	-2039.650024414062	488.979736328125	-219.0816040039062	-2007.5341796875	421.6592407226562	-450.1732482910156	-2099.226318359375	379.8440246582031	-445.10888671875	-2111.68896484375	312.4413146972656	-213.1646118164062	-2169.75048828125	203.8589172363281	-453.7027587890625	-2185.087646484375	348.4002075195312	-213.7448272705078	-2281.2041015625	344.9064636230469	-359.4032592773438	-2156.039306640625	223.9322967529297	-230.3286743164062	-2227.29833984375	260.8104553222656	-240.8059844970703	-2215.424560546875	343.9559631347656	-435.47900390625	-2243.556640625	129.7938842773438	-229.49658203125	-2071.833251953125	66.47097778320312	-296.694580078125	-2323.00537109375	110.5916213989258	-263.5715026855469	-2319.676513671875	78.63556671142578	-295.6476440429688	-2322.412109375	84.55408477783203	-238.6120300292969	-2286.071533203125	348.8360595703125	-412.1193237304688
36	0.175	-2060.5810546875	1482.198364257812	-500.8672790527344	-2052.072265625	1441.519653320312	-170.0771179199219	-2080.625732421875	991.5933837890624	-481.8490905761719	-2075.237548828125	1031.454345703125	-182.2731170654297	-2030.32080078125	961.6842041015624	-454.4291076660156	-2233.110595703125	359.8138122558594	-387.0848083496094	-2028.701293945312	985.7570190429688	-186.3817443847656	-2119.76611328125	863.64501953125	-489.5360717773438	-2133.302490234375	889.218505859375	-152.1410064697266	-2193.03564453125	1018.112487792969	-324.2967834472656	-1927.473266601562	804.8935546875	-473.6917724609375	-2099.196533203125	446.8468017578125	-420.8198852539062	-1988.536254882812	750.13916015625	-501.2034301757812	-1862.156372070312	724.0582275390625	-466.822998046875	-2136.906005859375	59.00796890258789	-211.6763763427734	-2015.215576171875	495.4263916015625	-457.8317260742188	-1927.493041992188	670.5751342773438	-484.4758911132812	-1993.68408203125	762.6656494140625	-174.3117218017578	-2073.09765625	159.0462493896484	-397.5857543945312	-2070.62109375	754.6162109375	-150.8959197998047	-1990.4697265625	661.11572265625	-188.7546691894531	-2069.6494140625	656.5211181640625	-171.0807189941406	-1825.602905273438	567.0072021484375	-451.5509338378906	-2029.869140625	489.2774963378906	-220.3387756347656	-1974.3369140625	422.8826293945312	-448.9976806640625	-2064.989013671875	378.130859375	-444.0519104003906	-2107.54736328125	312.8570556640625	-214.1620178222656	-2127.15576171875	200.0337066650391	-454.8592224121094	-2179.821044921875	350.3412475585938	-213.9474334716797	-2244.068359375	333.5350646972656	-359.4614562988281	-2152.64013671875	224.7030944824219	-230.4200744628906	-2223.927490234375	263.8773193359375	-241.0992889404297	-2179.898681640625	337.0719909667969	-435.630126953125	-2242.428955078125	131.9556274414062	-229.5010833740234	-2072.387451171875	65.57328033447266	-297.4106140136719	-2323.29248046875	112.4375457763672	-264.6974792480469	-2318.63720703125	80.18107604980469	-295.3494262695312	-2321.1953125	85.38876342773438	-238.4831695556641	-2250.6787109375	338.3970336914062	-412.3602600097656
37	0.18	-2043.085693359375	1485.534423828125	-502.2142333984375	-2028.300048828125	1445.731567382812	-170.7957153320312	-2059.4287109375	995.56689453125	-480.9344177246094	-2051.533203125	1032.253784179688	-180.4447174072266	-2009.558227539062	965.8974609375	-454.3731689453125	-2197.743408203125	349.7239379882812	-386.5987243652344	-2005.335205078125	986.6060180664062	-187.5007781982422	-2098.180908203125	868.4277954101562	-489.868896484375	-2111.77734375	891.4948120117188	-152.2715911865234	-2169.8837890625	1020.889953613281	-321.9249877929688	-1905.336303710938	811.6004638671875	-472.9728393554688	-2067.927490234375	443.199462890625	-421.2736206054688	-1966.351440429688	756.504150390625	-501.6217041015625	-1838.423217773438	731.8883056640625	-466.1207580566406	-2136.849609375	59.75458908081055	-212.1941070556641	-1985.915405273438	495.42138671875	-457.6653137207031	-1903.588989257812	677.6665649414062	-483.4243774414062	-1977.217041015625	761.6378173828125	-179.0363006591797	-2029.175659179688	157.0645904541016	-399.0087280273438	-2052.414306640625	756.0736694335938	-151.7958984375	-1976.105102539062	661.2218017578125	-191.1764984130859	-2054.140869140625	657.7471313476562	-172.3946838378906	-1798.843994140625	574.8928833007812	-451.1497497558594	-2021.510986328125	489.7160034179688	-222.2138977050781	-1941.91064453125	424.5047302246094	-449.0452575683594	-2030.76953125	375.6115112304688	-443.917724609375	-2102.701416015625	314.0823669433594	-214.7158355712891	-2085.126953125	195.44921875	-455.7566528320312	-2174.8681640625	352.9977111816406	-214.8121948242188	-2207.39501953125	322.6323547363281	-358.2453918457031	-2150.196533203125	226.5042114257812	-230.8564910888672	-2219.61083984375	267.0470275878906	-241.3588714599609	-2143.817626953125	329.970947265625	-435.3918151855469	-2241.35302734375	134.5597381591797	-229.1648406982422	-2072.673095703125	65.06752014160156	-298.1426696777344	-2321.645263671875	113.6581115722656	-263.7672119140625	-2318.34619140625	82.23612213134766	-295.6312561035156	-2320.476806640625	86.66238403320312	-238.8478546142578	-2209.51806640625	322.5792846679688	-408.7012023925781
38	0.185	-2025.181640625	1488.533447265625	-502.89697265625	-2004.390991210938	1449.707641601562	-172.1310119628906	-2038.026611328125	1000.270080566406	-481.2166442871094	-2025.818481445312	1033.995239257812	-179.7614593505859	-1987.666625976562	970.044189453125	-454.8994750976562	-2162.39892578125	339.1297607421875	-386.7509765625	-1981.765502929688	987.2022094726562	-187.3846130371094	-2076.093994140625	873.19873046875	-490.6031188964844	-2089.212646484375	893.6242065429688	-152.5304412841797	-2147.00830078125	1023.707336425781	-320.0567932128906	-1883.341430664062	818.2332763671875	-472.5882873535156	-2036.499145507812	439.0310363769531	-421.1750793457031	-1942.856811523438	761.9486083984375	-500.8036499023438	-1814.76806640625	739.0603637695312	-464.5370178222656	-2136.3701171875	60.36403274536133	-212.3823547363281	-1956.39794921875	494.7954406738281	-457.6104736328125	-1879.045043945312	684.2821044921875	-482.2471313476562	-1959.02001953125	761.736572265625	-181.8891754150391	-1984.17626953125	154.9875335693359	-400.5015869140625	-2034.554077148438	757.5443115234375	-153.2786407470703	-1959.5498046875	661.7578125	-194.2310485839844	-2038.01904296875	659.5263671875	-173.2299957275391	-1773.156616210938	582.5010375976562	-449.8662719726562	-2012.2470703125	489.0021057128906	-223.6624145507812	-1907.554321289062	425.2874145507812	-448.1974487304688	-1995.50537109375	373.1707153320312	-443.6054077148438	-2097.833251953125	315.7697448730469	-215.9233245849609	-2041.69921875	191.4737396240234	-456.2712707519531	-2168.91650390625	355.946533203125	-214.4709930419922	-2171.421875	312.2113342285156	-358.914306640625	-2145.55322265625	229.0412139892578	-230.5663909912109	-2215.629150390625	270.2205505371094	-240.9420776367188	-2108.17333984375	322.7906494140625	-435.9491882324219	-2240.2314453125	137.8376770019531	-228.4498748779297	-2072.302978515625	65.05640411376953	-298.6031188964844	-2321.569091796875	114.9273147583008	-264.4379577636719	-2317.324462890625	83.25284576416016	-296.2687683105469	-2320.480224609375	88.51551818847656	-239.6363372802734	-2173.76318359375	312.3129577636719	-408.6858825683594
